<svg xmlns="http://www.w3.org/2000/svg" viewBox="0 0 587.91 534.8"><defs><style>.cls-1{fill:#2074e2;}.cls-2{fill:#2275e2;}.cls-3{fill:#3e7ac4;}.cls-4{font-size:128px;fill:#2374dd;font-family:MyriadPro-Regular, Myriad Pro;}.cls-5{letter-spacing:-0.01em;}.cls-6{letter-spacing:0.01em;}</style></defs><g id="Layer_2" data-name="Layer 2"><g id="Layer_1-2" data-name="Layer 1"><g id="Layer_2-2" data-name="Layer 2"><g id="Layer_1-2-2" data-name="Layer 1-2"><path class="cls-1" d="M163.29,247.48l48.27-53.43c7.78,4.93,17.79,12,28.28,17.75,33.4,18.54,64.9,13.7,92.12-16,25.74-27.93,49.94-57.47,74.68-86.51q38.61-45.79,77.42-91.58c11.55-13.44,25.25-16.37,39.73-7,13.07,8.47,19.31,22.33,17,39.65a49.07,49.07,0,0,1-9.65,23.39c-50.58,60.34-100,122.12-153.13,179.36-60,64.57-147.72,62.5-210.24.34A61.32,61.32,0,0,1,163.29,247.48Z"/><path class="cls-2" d="M323.82,97.85a.94.94,0,0,1-1.31-.61,1.09,1.09,0,0,1-.07-.3l-14-9.89h.22C281.28,59.92,225,64.88,203.48,105.45l.26-.23-10,11.44h0L168,147.19h0l-25.74,30.53h0l-25.74,30.53h0L90.8,238.78h0l-29,34.34h0a74.58,74.58,0,0,0-13.12,6c-16.09,11.44-26.45,8.28-38.07-7.64s-5-30.37-1.25-45.64V226l3.21-4.12-.22.27q1.74-2.07,3.22-4.12v.23l3.21-4.09-.19.27,3.22-4.12.55.69-.68-.5,3.47-3.82L25,207l3.7-4.2-.19.27c1.13-1.37,2.25-2.75,3.41-4.08l-.19.26,3.41-4.12-.16.27,3.37-4.08-.16.26c1.13-1.33,2.22-2.71,3.22-4.08l-.16.23,3.54-4.05-.16.23,3.38-4-.2.23A50,50,0,0,0,51,176l-.19.23,6.82-7.86-.22.31,6.66-8-.17.31,3.38-4h-.16c2.16-2.55,4.28-5.11,6.44-7.63v.23c1.12-1.34,2.28-2.67,3.41-4.05l-.19.27,3.37-4.08-.16.23,3.38-4.05h-.22l6.66-7.71-.16.31,3.37-4-.16.23,3.38-4-.16.23c1.13-1.34,2.22-2.71,3.22-4.09l-.16.23,3.54-4-.16.23,3.37-4-.16.23,3.22-4.05v.19l3.22-4v.19l3.38-4-.16.23,3.37-4h-.16l6.44-7.64v.23l3.38-4-.16.23,3.38-4-.17.23,3.38-4.08-.16.26,3.38-4v.27c1.13-1.34,2.25-2.71,3.41-4l-.19.27,3.22-4.08h-.2l6.44-7.64v.27l3.57-3.82-.26.35L167.86,40h0l15.29-12.82h0A65.24,65.24,0,0,0,198,21.65C228.7,1.49,264.66-4.19,298.72,5.73c19,5.19,37.2,15,55.76,22.9h0l9.66,7.63h0l6.43,22.9h0l-5,5.57-4.73,6h0l-5.05,5.57-.19-1.22v1.26l-3,3.59-1-.69.9.84-4.73,6.07-3,3.81-5.21,5.5v0c-1,1.18-2,2.4-3.22,3.62v.54Z"/><path class="cls-3" d="M354.48,32.29c-18.56-7.63-36.71-17.55-55.76-22.89C264.58-.49,228.55,5.31,197.85,25.61a64.54,64.54,0,0,1-14.7,5.5C229.38-10.83,306.83-10.3,354.48,32.29Z"/><path class="cls-3" d="M203.48,105.45c21.5-40.57,77.8-45.53,105.15-18.36-5.6-2-11.26-3.82-16.73-6.11-26.67-11.44-51.25-6.75-74,12.86C213.2,97.89,208.31,101.59,203.48,105.45Z"/><path class="cls-3" d="M9.4,225.8C5.79,241.07-.26,255.57,11,271.1S32.82,290.18,49,278.73a75,75,0,0,1,13.13-6c-15.87,21.37-34.95,24.88-50.1,9.62S-4,244.62,9.4,225.8Z"/><path class="cls-3" d="M61.88,273.12l28.95-34.34Z"/><path class="cls-3" d="M90.8,238.74l25.74-30.53Z"/><path class="cls-3" d="M116.54,208.21l25.74-30.53Z"/><path class="cls-3" d="M142.28,177.64,168,147.12Z"/><path class="cls-3" d="M168,147.15l25.74-30.52Z"/><path class="cls-3" d="M370.51,59l-6.44-22.89L380.16,48.4Z"/><path class="cls-3" d="M183.15,27.14,167.77,39.89Z"/><path class="cls-3" d="M167.8,39.85,154.19,54.46Z"/><path class="cls-3" d="M308.41,87.05l14,9.89Z"/><path class="cls-3" d="M193.76,116.63l10-11.45Z"/><path class="cls-3" d="M323.82,97.85l12.55,1.3C331.38,109.72,327.68,102.55,323.82,97.85Z"/><path class="cls-3" d="M364.07,36.15l-9.65-7.64Z"/><path class="cls-3" d="M150.71,57.74l-6.43,7.64Z"/><path class="cls-3" d="M124.94,88.27l-6.43,7.64Z"/><path class="cls-3" d="M73.46,149.33c-2.16,2.52-4.28,5.08-6.44,7.63C69.15,154.41,71.3,151.85,73.46,149.33Z"/><path class="cls-3" d="M64.1,160.7l-6.76,8Z"/><path class="cls-3" d="M89.84,130.17l-6.66,7.9Z"/><path class="cls-3" d="M57.66,168.37,51,176.23Z"/><path class="cls-3" d="M365.58,64.58l5-5.61Z"/><path class="cls-3" d="M360.85,70.53l4.73-6Z"/><path class="cls-3" d="M355.9,76,361,70.41Z"/><path class="cls-3" d="M339.72,95l5.21-5.5Z"/><path class="cls-3" d="M348,85.83l4.73-6.07Z"/><path class="cls-3" d="M138.1,73l-3.41,4C135.72,75.68,136.88,74.34,138.1,73Z"/><path class="cls-3" d="M352.78,79.61l3-3.59Z"/><path class="cls-3" d="M134.88,76.79l-3.38,4.08Z"/><path class="cls-3" d="M131.67,80.64l-3.38,4Z"/><path class="cls-3" d="M128.45,84.46l-3.38,4Z"/><path class="cls-3" d="M105.92,111.17l-3.54,4Z"/><path class="cls-3" d="M99.49,118.76c-1.13,1.38-2.22,2.75-3.22,4.09A24,24,0,0,1,99.49,118.76Z"/><path class="cls-3" d="M96.27,122.62l-3.38,4Z"/><path class="cls-3" d="M93.05,126.43l-3.37,4Z"/><path class="cls-3" d="M102.71,115l-3.54,4Z"/><path class="cls-3" d="M80.18,141.7l-3.5,4.08Z"/><path class="cls-3" d="M77,145.51c-1.13,1.38-2.29,2.71-3.41,4.05Z"/><path class="cls-3" d="M112.36,103.54l-3.22,4Z"/><path class="cls-3" d="M154.19,54.12l-3.57,3.82Z"/><path class="cls-3" d="M67.31,157l-3.38,4Z"/><path class="cls-3" d="M83.4,137.88,80,141.93Z"/><path class="cls-3" d="M144.54,65.42l-3.42,4.08C142.19,68.12,143.31,66.75,144.54,65.42Z"/><path class="cls-3" d="M51.23,176c-1.1,1.38-2.22,2.71-3.22,4.09Z"/><path class="cls-3" d="M115.58,99.72l-3.38,4Z"/><path class="cls-3" d="M48,179.86l-3.38,4Z"/><path class="cls-3" d="M44.79,183.67l-3.38,4.05Z"/><path class="cls-3" d="M41.57,187.49c-1.12,1.37-2.22,2.75-3.22,4.08Z"/><path class="cls-3" d="M141.32,69.23c-1.16,1.34-2.29,2.71-3.41,4C139,71.94,140.1,70.57,141.32,69.23Z"/><path class="cls-3" d="M38.35,191.31l-3.47,4.08Z"/><path class="cls-3" d="M35.14,195.12l-3.48,4.12Z"/><path class="cls-3" d="M31.92,199c-1.16,1.33-2.28,2.71-3.41,4.08C29.57,201.69,30.7,200.31,31.92,199Z"/><path class="cls-3" d="M109.14,107.35l-3.22,4.05Z"/><path class="cls-3" d="M25.48,206.57,22,210.39Z"/><path class="cls-3" d="M118.79,99.72l-3.37,4Z"/><path class="cls-3" d="M22.07,214.16l-3.21,4.13Z"/><path class="cls-3" d="M19.05,218l-3.22,4.08Z"/><path class="cls-3" d="M15.83,221.87q-1.63,2.07-3.22,4.12Z"/><path class="cls-3" d="M12.61,225.73l-3.44,4.12Z"/><path class="cls-3" d="M336.53,102.43c1-1.22,2-2.44,3.22-3.62Z"/><path class="cls-3" d="M28.7,206.61l-3.47,4Z"/></g></g><text class="cls-4" transform="translate(3.26 391.66)">Sha<tspan class="cls-5" x="195.84" y="0">r</tspan><tspan x="236.41" y="0">e </tspan><tspan class="cls-6" x="327.68" y="0">M</tspan><tspan x="431.35" y="0">e</tspan></text></g></g></svg>